<?xml version="1.0" encoding="UTF-8" standalone="no"?>
<!-- Created with Inkscape (http://www.inkscape.org/) -->

<svg
   xmlns:dc="http://purl.org/dc/elements/1.1/"
   xmlns:cc="http://creativecommons.org/ns#"
   xmlns:rdf="http://www.w3.org/1999/02/22-rdf-syntax-ns#"
   xmlns:svg="http://www.w3.org/2000/svg"
   xmlns="http://www.w3.org/2000/svg"
   xmlns:sodipodi="http://sodipodi.sourceforge.net/DTD/sodipodi-0.dtd"
   xmlns:inkscape="http://www.inkscape.org/namespaces/inkscape"
   sodipodi:docname="pc_add.svg"
   inkscape:version="0.92.3 (unknown)"
   id="svg8"
   version="1.1"
   viewBox="0 0 210 292"
   height="1103.6221"
   width="793.70081">
  <sodipodi:namedview
     units="px"
     inkscape:pagecheckerboard="false"
     inkscape:window-maximized="1"
     inkscape:window-y="55"
     inkscape:window-x="0"
     inkscape:window-height="1923"
     inkscape:window-width="3840"
     showgrid="true"
     inkscape:current-layer="svg8"
     inkscape:document-units="px"
     inkscape:cy="739.71173"
     inkscape:cx="758.57432"
     inkscape:zoom="2.7488655"
     inkscape:pageshadow="2"
     inkscape:pageopacity="0.0"
     borderopacity="1.0"
     bordercolor="#666666"
     pagecolor="#ffffff"
     id="base">
    <inkscape:grid
       type="xygrid"
       id="grid7952"
       empspacing="10"
       empcolor="#a94c8b"
       empopacity="0.25098039" />
  </sodipodi:namedview>
  <defs
     id="defs2">
    <symbol
       id="And_Gate">
      <title
         id="title56">And Gate</title>
      <path
         style="stroke-width:0.26458332"
         inkscape:connector-curvature="0"
         d="M 6.6145833,18.520833 V 15.875 13.229167 10.583333 7.9375 h 7.9374997 c 2.922507,0 5.291667,2.36916 5.291667,5.291667 0,2.922506 -2.36916,5.291666 -5.291667,5.291666 z"
         id="path58" />
    </symbol>
    <symbol
       id="Nor_Gate">
      <title
         id="title37">Nor Gate</title>
      <path
         style="stroke-width:0.26458332"
         inkscape:connector-curvature="0"
         d="M 6.5236328,18.520833 H 11.90625 c 5.291667,0 7.9375,-5.291666 7.9375,-5.291666 0,0 -1.322917,-5.291667 -7.9375,-5.291667 H 6.5236328 c 0.4735846,0.8186706 0.8337984,1.7074809 1.0748698,2.645833 0.2173208,0.845905 0.3389974,1.731915 0.3389974,2.645834 0,0.913918 -0.1216766,1.799928 -0.3389974,2.645833 -0.2410714,0.938352 -0.6012852,1.827163 -1.0748698,2.645833 z"
         id="path39" />
      <path
         style="stroke-width:0.26458332"
         inkscape:connector-curvature="0"
         d="m 21.166667,13.229167 c 0,0.365313 -0.296145,0.661458 -0.661459,0.661458 -0.365313,0 -0.661458,-0.296145 -0.661458,-0.661458 0,-0.365314 0.296145,-0.661459 0.661458,-0.661459 0.365314,0 0.661459,0.296145 0.661459,0.661459 z"
         id="path41" />
    </symbol>
    <symbol
       id="Not_Gate_Small">
      <title
         id="title78">Not Gate Small</title>
      <path
         d="m 67.5,50 c 0,1.380712 -1.119288,2.5 -2.5,2.5 -1.380712,0 -2.5,-1.119288 -2.5,-2.5 0,-1.380712 1.119288,-2.5 2.5,-2.5 C 66.380712,47.5 67.5,48.619288 67.5,50 Z"
         id="path80" />
      <path
         d="m 37.711573,40 25,10 L 37.711573,60 Z"
         style="stroke-miterlimit:2"
         id="path82" />
    </symbol>
    <symbol
       id="Not_Gate">
      <title
         id="title66">Not Gate</title>
      <path
         style="stroke-miterlimit:2"
         d="M 25,30 75,50 25,70 25,50 Z"
         id="path68" />
      <path
         d="m 80,50 c 0,1.380712 -1.119288,2.5 -2.5,2.5 C 76.119288,52.5 75,51.380712 75,50 75,48.619288 76.119288,47.5 77.5,47.5 78.880712,47.5 80,48.619288 80,50 Z"
         id="path70" />
    </symbol>
    <symbol
       id="Or_Gate">
      <title
         id="title44">Or Gate</title>
      <path
         d="M 24.65625,70 45,70 C 65,70 75,50 75,50 75,50 70,30 45,30 l -20.34375,0 c 1.789926,3.094188 3.151364,6.453471 4.0625,10 C 29.54012,43.197121 30,46.545819 30,50 30,53.454181 29.54012,56.802879 28.71875,60 27.807614,63.546529 26.446176,66.905812 24.65625,70 Z"
         id="path46" />
    </symbol>
    <symbol
       id="Xor_Gate">
      <title
         id="title30">Xor Gate</title>
      <path
         d="M 24.65625,70 45,70 C 65,70 75,50 75,50 75,50 70,30 45,30 l -20.34375,0 c 1.789926,3.094188 3.151364,6.453471 4.0625,10 C 29.54012,43.197121 30,46.545819 30,50 30,53.454181 29.54012,56.802879 28.71875,60 27.807614,63.546529 26.446176,66.905812 24.65625,70 Z"
         id="path32" />
      <path
         d="M 18.65625,70 C 22.629549,64.322431 25,57.455703 25,50 25,42.544297 22.629549,35.677569 18.65625,30"
         id="path34" />
    </symbol>
  </defs>
  <metadata
     id="metadata5">
    <rdf:RDF>
      <cc:Work
         rdf:about="">
        <dc:format>image/svg+xml</dc:format>
        <dc:type
           rdf:resource="http://purl.org/dc/dcmitype/StillImage" />
        <dc:title></dc:title>
      </cc:Work>
    </rdf:RDF>
  </metadata>
  <g
     inkscape:label="Layer 1"
     inkscape:groupmode="layer"
     id="layer1"
     transform="translate(0,-5)">
    <flowRoot
       xml:space="preserve"
       id="flowRoot12481"
       style="fill:black;fill-opacity:1;stroke:none;font-family:sans-serif;font-style:normal;font-weight:normal;font-size:20px;line-height:1.25;letter-spacing:0px;word-spacing:0px;-inkscape-font-specification:'sans-serif, Normal';font-stretch:normal;font-variant:normal;text-anchor:start;text-align:start;writing-mode:lr;font-variant-ligatures:normal;font-variant-caps:normal;font-variant-numeric:normal;font-feature-settings:normal"><flowRegion
         id="flowRegion12483"><rect
           id="rect12485"
           width="150"
           height="100"
           x="40"
           y="143.62207" /></flowRegion><flowPara
         id="flowPara12487" /></flowRoot>  </g>
  <path
     style="fill:none;stroke:#000000;stroke-width:0.26458332px;stroke-linecap:butt;stroke-linejoin:miter;stroke-opacity:1"
     d="m 100.54167,43.291672 v 15.875 L 111.125,69.750005 v 13.229167 l -10.58333,10.583333 v 13.229165 l 23.8125,-23.812498 V 69.750005 l -23.8125,-26.458333"
     id="path12078"
     inkscape:connector-curvature="0"
     inkscape:export-filename="/home/roggero/Desktop/DLX/Report/chapters/figures/pc_add.png"
     inkscape:export-xdpi="96"
     inkscape:export-ydpi="96" />
  <path
     style="fill:none;stroke:#000000;stroke-width:0.26458332px;stroke-linecap:butt;stroke-linejoin:miter;stroke-opacity:1"
     d="m 113.77083,75.041672 h 5.29167"
     id="path12082"
     inkscape:connector-curvature="0"
     inkscape:export-filename="/home/roggero/Desktop/DLX/Report/chapters/figures/pc_add.png"
     inkscape:export-xdpi="96"
     inkscape:export-ydpi="96" />
  <path
     style="fill:none;stroke:#000000;stroke-width:0.26458332px;stroke-linecap:butt;stroke-linejoin:miter;stroke-opacity:1"
     d="m 116.41667,72.395838 v 5.291667"
     id="path12084"
     inkscape:connector-curvature="0"
     inkscape:export-filename="/home/roggero/Desktop/DLX/Report/chapters/figures/pc_add.png"
     inkscape:export-xdpi="96"
     inkscape:export-ydpi="96" />
  <path
     style="fill:none;stroke:#000000;stroke-width:0.26458332px;stroke-linecap:butt;stroke-linejoin:miter;stroke-opacity:1"
     d="M 87.312499,101.5 H 100.54167"
     id="path12086"
     inkscape:connector-curvature="0"
     inkscape:export-filename="/home/roggero/Desktop/DLX/Report/chapters/figures/pc_add.png"
     inkscape:export-xdpi="96"
     inkscape:export-ydpi="96" />
  <path
     style="fill:none;stroke:#000000;stroke-width:0.26458332px;stroke-linecap:butt;stroke-linejoin:miter;stroke-opacity:1"
     d="M 89.958332,51.229172 H 100.54167"
     id="path12088"
     inkscape:connector-curvature="0"
     inkscape:export-filename="/home/roggero/Desktop/DLX/Report/chapters/figures/pc_add.png"
     inkscape:export-xdpi="96"
     inkscape:export-ydpi="96" />
  <path
     style="fill:none;stroke:#000000;stroke-width:0.26458332px;stroke-linecap:butt;stroke-linejoin:miter;stroke-opacity:1"
     d="M 124.35417,75.041672 H 142.875"
     id="path12090"
     inkscape:connector-curvature="0"
     inkscape:export-filename="/home/roggero/Desktop/DLX/Report/chapters/figures/pc_add.png"
     inkscape:export-xdpi="96"
     inkscape:export-ydpi="96" />
  <text
     xml:space="preserve"
     style="font-style:normal;font-variant:normal;font-weight:normal;font-stretch:normal;font-size:5.29166651px;line-height:1.25;font-family:sans-serif;-inkscape-font-specification:'sans-serif, Normal';font-variant-ligatures:normal;font-variant-caps:normal;font-variant-numeric:normal;font-feature-settings:normal;text-align:start;letter-spacing:0px;word-spacing:0px;writing-mode:lr-tb;text-anchor:start;fill:#000000;fill-opacity:1;stroke:none;stroke-width:0.26458332"
     x="91.930405"
     y="47.958794"
     id="text12094"
     inkscape:export-filename="/home/roggero/Desktop/DLX/Report/chapters/figures/pc_add.png"
     inkscape:export-xdpi="96"
     inkscape:export-ydpi="96"><tspan
       sodipodi:role="line"
       id="tspan12092"
       x="91.930405"
       y="47.958794"
       style="stroke-width:0.26458332">D</tspan></text>
  <text
     xml:space="preserve"
     style="font-style:normal;font-variant:normal;font-weight:normal;font-stretch:normal;font-size:5.29166651px;line-height:1.25;font-family:sans-serif;-inkscape-font-specification:'sans-serif, Normal';font-variant-ligatures:normal;font-variant-caps:normal;font-variant-numeric:normal;font-feature-settings:normal;text-align:start;letter-spacing:0px;word-spacing:0px;writing-mode:lr-tb;text-anchor:start;fill:#000000;fill-opacity:1;stroke:none;stroke-width:0.26458332"
     x="89.524109"
     y="98.422127"
     id="text12098"
     inkscape:export-filename="/home/roggero/Desktop/DLX/Report/chapters/figures/pc_add.png"
     inkscape:export-xdpi="96"
     inkscape:export-ydpi="96"><tspan
       sodipodi:role="line"
       id="tspan12096"
       x="89.524109"
       y="98.422127"
       style="stroke-width:0.26458332">&quot;4&quot;</tspan></text>
  <text
     xml:space="preserve"
     style="font-style:normal;font-variant:normal;font-weight:normal;font-stretch:normal;font-size:5.29166651px;line-height:1.25;font-family:sans-serif;-inkscape-font-specification:'sans-serif, Normal';font-variant-ligatures:normal;font-variant-caps:normal;font-variant-numeric:normal;font-feature-settings:normal;text-align:start;letter-spacing:0px;word-spacing:0px;writing-mode:lr-tb;text-anchor:start;fill:#000000;fill-opacity:1;stroke:none;stroke-width:0.26458332"
     x="134.9375"
     y="72.395836"
     id="text12102"
     inkscape:export-filename="/home/roggero/Desktop/DLX/Report/chapters/figures/pc_add.png"
     inkscape:export-xdpi="96"
     inkscape:export-ydpi="96"><tspan
       sodipodi:role="line"
       id="tspan12100"
       x="134.9375"
       y="72.395836"
       style="stroke-width:0.26458332">JMP_RET</tspan></text>
</svg>
